{
	"asset":{
		"generator":"Khronos glTF Blender I/O v3.6.28",
		"version":"2.0"
	},
	"extensionsUsed":[
		"KHR_materials_transmission",
		"KHR_materials_volume",
		"KHR_materials_variants"
	],
	"extensionsRequired":[
		"KHR_materials_variants"
	],
	"extensions":{
		"KHR_materials_variants":{
			"variants":[
				{
					"name":"Attenuation"
				},
				{
					"name":"Surface Color"
				}
			]
		}
	},
	"scene":0,
	"scenes":[
		{
			"name":"Scene",
			"nodes":[
				0,
				1
			]
		}
	],
	"nodes":[
		{
			"mesh":0,
			"name":"Cloth Backdrop",
			"scale":[
				3.5,
				3.5,
				3.5
			],
			"translation":[
				-0.15470129251480103,
				-0.841584324836731,
				-0.1703687310218811
			]
		},
		{
			"mesh":1,
			"name":"Dragon",
			"rotation":[
				0.70710688829422,
				0,
				0,
				0.7071066498756409
			],
			"scale":[
				0.25,
				0.2500000298023224,
				0.2500000298023224
			],
			"translation":[
				0,
				-0.7306479811668396,
				0
			]
		}
	],
	"materials":[
		{
			"name":"Cloth Backdrop",
			"pbrMetallicRoughness":{
				"baseColorTexture":{
					"index":0
				},
				"metallicFactor":0,
				"roughnessFactor":0.4934999942779541
			}
		},
		{
			"doubleSided":false,
			"extensions":{
				"KHR_materials_transmission":{
					"transmissionFactor":1
				},
				"KHR_materials_volume":{
					"attenuationColor":[
						0.9210000038146973,
						0.6399999856948853,
						0.06400000303983688
					],
					"attenuationDistance":0.1549999988913536,
					"thicknessFactor":2.2699999809265137,
					"thicknessTexture":{
						"index":1
					}
				}
			},
			"name":"Dragon with Attenuation",
			"pbrMetallicRoughness":{
				"metallicFactor":0,
				"roughnessFactor":0
			}
		},
		{
			"doubleSided":false,
			"extensions":{
				"KHR_materials_transmission":{
					"transmissionFactor":1
				},
				"KHR_materials_volume":{
					"attenuationColor":[
						1,
						1,
						1
					],
					"thicknessFactor":2.2699999809265137,
					"thicknessTexture":{
						"index":2
					}
				}
			},
			"name":"Dragon with Surface Coloring Only",
			"pbrMetallicRoughness":{
				"baseColorFactor":[
					0.9210000038146973,
					0.6399999856948853,
					0.06400000303983688,
					1
				],
				"metallicFactor":0,
				"roughnessFactor":0
			}
		}
	],
	"meshes":[
		{
			"name":"Cloth Backdrop",
			"primitives":[
				{
					"attributes":{
						"POSITION":0,
						"NORMAL":1,
						"TEXCOORD_0":2
					},
					"indices":3,
					"material":0
				}
			]
		},
		{
			"name":"Dragon",
			"primitives":[
				{
					"attributes":{
						"POSITION":4,
						"NORMAL":5,
						"TEXCOORD_0":6
					},
					"extensions":{
						"KHR_materials_variants":{
							"mappings":[
								{
									"material":1,
									"variants":[
										0
									]
								},
								{
									"material":2,
									"variants":[
										1
									]
								}
							]
						}
					},
					"indices":7,
					"material":1
				}
			]
		}
	],
	"textures":[
		{
			"sampler":0,
			"source":0
		},
		{
			"sampler":0,
			"source":1
		},
		{
			"sampler":0,
			"source":1
		}
	],
	"images":[
		{
			"mimeType":"image/jpeg",
			"name":"Image_0",
			"uri":"Image_0.jpg"
		},
		{
			"mimeType":"image/jpeg",
			"name":"Image_1",
			"uri":"Image_1.jpg"
		}
	],
	"accessors":[
		{
			"bufferView":0,
			"componentType":5126,
			"count":62640,
			"max":[
				0.9809443354606628,
				1.0221298933029175,
				1.4283748865127563
			],
			"min":[
				-0.8216659426689148,
				0.0015843699220567942,
				-0.46063709259033203
			],
			"type":"VEC3"
		},
		{
			"bufferView":1,
			"componentType":5126,
			"count":62640,
			"type":"VEC3"
		},
		{
			"bufferView":2,
			"componentType":5126,
			"count":62640,
			"type":"VEC2"
		},
		{
			"bufferView":3,
			"componentType":5123,
			"count":131337,
			"type":"SCALAR"
		},
		{
			"bufferView":4,
			"componentType":5126,
			"count":76809,
			"max":[
				7.0467000007629395,
				3.1512999534606934,
				0
			],
			"min":[
				-7.0467000007629395,
				-3.1512999534606934,
				-9.939900398254395
			],
			"type":"VEC3"
		},
		{
			"bufferView":5,
			"componentType":5126,
			"count":76809,
			"type":"VEC3"
		},
		{
			"bufferView":6,
			"componentType":5126,
			"count":76809,
			"type":"VEC2"
		},
		{
			"bufferView":7,
			"componentType":5125,
			"count":273648,
			"type":"SCALAR"
		}
	],
	"bufferViews":[
		{
			"buffer":0,
			"byteLength":751680,
			"byteOffset":0,
			"target":34962
		},
		{
			"buffer":0,
			"byteLength":751680,
			"byteOffset":751680,
			"target":34962
		},
		{
			"buffer":0,
			"byteLength":501120,
			"byteOffset":1503360,
			"target":34962
		},
		{
			"buffer":0,
			"byteLength":262674,
			"byteOffset":2004480,
			"target":34963
		},
		{
			"buffer":0,
			"byteLength":921708,
			"byteOffset":2267156,
			"target":34962
		},
		{
			"buffer":0,
			"byteLength":921708,
			"byteOffset":3188864,
			"target":34962
		},
		{
			"buffer":0,
			"byteLength":614472,
			"byteOffset":4110572,
			"target":34962
		},
		{
			"buffer":0,
			"byteLength":1094592,
			"byteOffset":4725044,
			"target":34963
		}
	],
	"samplers":[
		{
			"magFilter":9729,
			"minFilter":9987
		}
	],
	"buffers":[
		{
			"byteLength":5819636,
			"uri":"DragonAttenuation.bin"
		}
	]
}
